Coordinates
version=1
nRows=23
nColumns=23
inDegrees=yes

Units are S.I. units (second, meters, Newtons, ...)
If the header above contains a line with 'inDegrees', this indicates whether rotational values are in degrees (yes) or radians (no).

endheader
time	pelvis_tilt	pelvis_list	pelvis_rotation	pelvis_tx	pelvis_ty	pelvis_tz	hip_flexion_r	hip_adduction_r	hip_rotation_r	knee_angle_r	knee_angle_r_beta	ankle_angle_r	subtalar_angle_r	mtp_angle_r	hip_flexion_l	hip_adduction_l	hip_rotation_l	knee_angle_l	knee_angle_l_beta	ankle_angle_l	subtalar_angle_l	mtp_angle_l
     22.50000000	     -4.04560128	      7.91238965	      8.16877382	      2.35040823	      0.88170425	      0.99531049	     31.99452316	    -13.34507452	     -4.43167314	    118.11547733	      2.06150398	     -4.79038390	    -20.41621696	      0.00000000	     13.31540871	      8.46144657	     -8.05901271	     45.98614412	      0.80260963	     28.53829432	     -2.47476481	      0.00000000
     22.50666667	     -3.89970579	      7.44934961	      7.18347067	      2.35172485	      0.88468030	      0.99468171	     34.68838074	    -12.51030542	     -3.29141696	    116.85723922	      2.03954358	     -4.05752402	    -20.47865232	      0.00000000	      9.89857473	      7.62092977	     -8.68480913	     43.72121061	      0.76307908	     28.47163462	     -1.58323360	      0.00000000
     22.51333333	     -3.16286721	      6.68266814	      6.20019377	      2.35402474	      0.88873109	      0.99410711	     36.25309651	    -11.38447719	     -2.84932840	    115.01066757	      2.00731482	     -3.31718933	    -20.91701861	      0.00000000	      5.71600888	      6.20724168	    -10.01473740	     41.25866447	      0.72009954	     28.34306310	      1.21796589	      0.00000000
     22.52000000	     -2.81506314	      5.93342425	      5.27213784	      2.35645008	      0.89252535	      0.99332249	     38.03942232	    -10.32112577	     -2.56718070	    112.89500613	      1.97038957	     -2.65554362	    -21.80422989	      0.00000000	      1.88295593	      5.21118648	    -10.93950258	     38.45684801	      0.67119862	     27.52671668	      2.67678588	      0.00000000
     22.52666667	     -2.48146328	      4.94159343	      4.45483349	      2.35929243	      0.89651294	      0.99252712	     39.49063902	     -9.08037936	     -2.78770679	    110.38424741	      1.92656856	     -1.98087162	    -22.92636925	      0.00000000	     -1.93645904	      4.01762871	    -12.00808979	     35.53014402	      0.62011800	     25.97657595	      4.27126325	      0.00000000
     22.53333333	     -2.39791914	      3.96323714	      3.69743360	      2.36228930	      0.90031691	      0.99163205	     40.97814312	     -7.91256150	     -3.19038735	    107.61219561	      1.87818713	     -1.36124882	    -24.19672793	      0.00000000	     -5.49181303	      3.09693563	    -12.82562087	     32.37557588	      0.56506040	     23.45601011	      5.11468681	      0.00000000
     22.54000000	     -2.36042841	      2.86718939	      3.12388499	      2.36544310	      0.90418395	      0.99058750	     42.20529859	     -6.81027450	     -4.01489730	    104.52605463	      1.82432381	     -0.66506044	    -25.44053355	      0.00000000	     -8.92295664	      2.19184545	    -13.35625401	     29.14989009	      0.50876156	     20.13566247	      5.51106927	      0.00000000
     22.54666667	     -2.52694067	      1.81946775	      2.68717485	      2.36869113	      0.90788575	      0.98945230	     43.41148243	     -5.89147447	     -5.04682436	    101.20445327	      1.76635093	      0.13531352	    -26.43063465	      0.00000000	    -12.08570024	      1.56842188	    -13.19411519	     25.75795836	      0.44956118	     15.93686785	      4.63434953	      0.00000000
     22.55333333	     -2.78478173	      0.63453246	      2.30813084	      2.37198794	      0.91131914	      0.98848542	     44.47823672	     -4.89604821	     -6.33759329	     97.62471540	      1.70387272	      0.99183508	    -27.22939623	      0.00000000	    -14.92805279	      0.65297399	    -13.59752501	     22.75373122	      0.39712753	     11.64734526	      4.59146877	      0.00000000
     22.56000000	     -3.19026529	     -0.45962310	      2.03102698	      2.37522663	      0.91461497	      0.98759722	     45.48730308	     -4.07475414	     -7.74142474	     93.81884689	      1.63744778	      1.96056104	    -27.65130885	      0.00000000	    -17.50902066	     -0.01828186	    -13.26648141	     19.72893656	      0.34433490	      6.75824742	      3.23332041	      0.00000000
     22.56666667	     -3.64822564	     -1.61596717	      1.78068704	      2.37836896	      0.91771234	      0.98700574	     46.34276290	     -3.17678764	     -9.25713911	     89.76205500	      1.56664340	      2.93931761	    -27.84397030	      0.00000000	    -19.72022206	     -0.94046849	    -13.54260884	     17.31721951	      0.30224250	      2.16496856	      2.65773657	      0.00000000
     22.57333333	     -4.16231864	     -2.76544493	      1.56385711	      2.38132336	      0.92059145	      0.98658732	     47.05640030	     -2.29995802	    -10.85358035	     85.46950143	      1.49172421	      3.86767233	    -27.84853907	      0.00000000	    -21.49035271	     -2.05117350	    -14.54704139	     15.69582556	      0.27394383	     -1.88743253	      2.97654062	      0.00000000
     22.58000000	     -4.67382660	     -3.77772900	      1.39552067	      2.38411459	      0.92344751	      0.98639909	     47.56411581	     -1.50858633	    -12.38770381	     80.94711339	      1.41279365	      4.80209948	    -27.51228451	      0.00000000	    -23.04745119	     -3.01522102	    -15.18399521	     14.43678340	      0.25196940	     -5.78039626	      2.56608620	      0.00000000
     22.58666667	     -5.21798652	     -4.72571542	      1.19795383	      2.38663753	      0.92610640	      0.98651164	     47.93219893	     -0.65857384	    -13.83045680	     76.19604345	      1.32987184	      5.67238109	    -26.82614992	      0.00000000	    -24.14975242	     -4.11000657	    -16.50822714	     14.12498282	      0.24652746	     -8.81137582	      2.94136285	      0.00000000
     22.59333333	     -5.69829198	     -5.56161851	      1.02347037	      2.38892022	      0.92867551	      0.98682139	     48.04736830	      0.15552968	    -15.21514422	     71.24678821	      1.24349104	      6.61002132	    -25.50422669	      0.00000000	    -25.02482599	     -5.19161074	    -17.86955048	     14.46253759	      0.25241890	    -11.18473558	      3.27613969	      0.00000000
     22.60000000	     -6.12429254	     -6.30963726	      0.83975276	      2.39095147	      0.93100372	      0.98732467	     47.93312071	      0.96768581	    -16.56283032	     66.13504426	      1.15427427	      7.67710179	    -23.35055683	      0.00000000	    -25.65440694	     -6.31471122	    -19.37373330	     15.53660453	      0.27116490	    -12.81205627	      3.73521107	      0.00000000
     22.60666667	     -6.52341249	     -6.98133758	      0.65537562	      2.39270285	      0.93301474	      0.98805340	     47.63238235	      1.81717167	    -17.85825719	     60.88154822	      1.06258347	      8.78978236	    -20.53555587	      0.00000000	    -26.04396067	     -7.45120623	    -20.68435176	     17.25927591	      0.30123119	    -13.77337113	      3.90299852	      0.00000000
     22.61333333	     -6.84607305	     -7.55550510	      0.44828454	      2.39421222	      0.93462449	      0.98892748	     47.11311017	      2.63350378	    -19.19227006	     55.60018684	      0.97040633	     10.14699413	    -16.62954617	      0.00000000	    -26.28092525	     -8.60580926	    -22.00566743	     19.59588753	      0.34201276	    -14.14996602	      4.26458138	      0.00000000
     22.62000000	     -7.24934836	     -8.02391498	      0.17753996	      2.39535048	      0.93571111	      0.99014924	     46.58006949	      3.63988900	    -20.16336947	     50.21021922	      0.87633364	     11.06622102	    -13.11100464	      0.00000000	    -26.22902974	     -9.56749578	    -22.46132768	     22.31617521	      0.38949073	    -14.32995773	      3.33667180	      0.00000000
     22.62666667	     -7.29571747	     -8.38968942	      0.04922103	      2.39646315	      0.93657348	      0.99115294	     45.55714399	      4.33180035	    -21.63965899	     45.08855392	      0.78694372	     12.52551339	     -7.81752474	      0.00000000	    -26.34983933	    -10.50826649	    -22.68312496	     25.44652247	      0.44412560	    -14.11820030	      2.74459207	      0.00000000
     22.63333333	     -7.44578034	     -8.57356433	     -0.14115084	      2.39719812	      0.93683060	      0.99235339	     44.63594675	      5.14478518	    -22.60056528	     40.09202120	      0.69973777	     13.60467710	     -3.21510003	      0.00000000	    -26.12369622	    -11.10495752	    -22.03783416	     28.87099720	      0.50389396	    -13.96081646	      1.08910408	      0.00000000
     22.64000000	     -7.53422023	     -8.57478360	     -0.35304759	      2.39763474	      0.93660005	      0.99352575	     43.68084895	      5.94459776	    -23.13268409	     35.41720394	      0.61814682	     14.50106470	      0.96391665	      0.00000000	    -25.70957910	    -11.37627121	    -20.83590489	     32.60562618	      0.56907553	    -13.78112908	     -1.08566311	      0.00000000
     22.64666667	     -7.65257389	     -8.46717675	     -0.60948782	      2.39771302	      0.93582858	      0.99464581	     42.78830278	      6.87231623	    -22.88111838	     31.02154363	      0.54142808	     15.05295865	      3.86392069	      0.00000000	    -25.00252143	    -11.44947450	    -19.40865989	     36.71168554	      0.64073979	    -13.53529620	     -3.32442489	      0.00000000
